<svg width="318" height="292" viewBox="0 0 318 292" fill="none" xmlns="http://www.w3.org/2000/svg">
<g opacity="0.5">
<path fill-rule="evenodd" clip-rule="evenodd" d="M41.6443 54.824C40.9683 55.4984 41.2309 57.8952 41.2167 58.7821C41.195 60.1629 41.281 61.5314 41.3965 62.9072C41.4739 63.8284 41.9102 72.6195 43.1245 71.9443C43.809 71.5639 43.3799 69.0209 43.3787 68.2165C43.3759 66.4282 43.3015 64.6444 43.1822 62.8601C43.0712 61.2036 43.0016 59.5664 43.0654 57.9067C43.081 57.5016 43.4603 53.0061 41.6443 54.824Z" fill="#89C5CC"/>
<path fill-rule="evenodd" clip-rule="evenodd" d="M71.0814 53.7403C65.2743 53.7865 59.4695 54.0727 53.6652 54.2481C50.8721 54.3325 48.0809 54.4398 45.2908 54.5944C44.3401 54.6472 42.3011 54.343 41.509 54.8492C39.7506 55.9731 42.5864 56.2358 43.3423 56.2083C54.8292 55.7921 66.32 55.2439 77.8166 55.2181C83.4561 55.2055 89.0929 55.366 94.733 55.3299C96.889 55.3162 99.2764 54.388 99.8209 56.8957C100.435 59.7254 99.7293 62.8759 99.5372 65.7194C99.4089 67.6175 99.4546 69.4762 99.5402 71.3728C99.5951 72.5878 99.4522 73.9569 99.6671 75.1492C99.874 76.2973 100.7 76.9858 101.457 75.6997C101.909 74.9312 101.684 73.0337 101.715 72.1433C101.755 70.9442 101.717 69.7455 101.717 68.5463C101.717 65.619 102.13 62.7033 102.075 59.7767C102.04 57.8895 101.94 54.4682 99.558 54.0148C96.9349 53.5154 93.7107 54.0176 91.0264 53.9869C84.3751 53.9111 77.7349 53.6884 71.0814 53.7403Z" fill="#89C5CC"/>
<path fill-rule="evenodd" clip-rule="evenodd" d="M55.0801 72.0493C52.8904 72.0493 50.7005 72.0624 48.511 72.0987C46.6331 72.1297 43.6806 71.7386 41.9329 72.41C40.7364 72.8696 40.4185 74.2044 41.9329 74.5599C43.5845 74.9479 46.0737 74.3137 47.8017 74.2833C56.4667 74.1304 65.2152 73.9311 73.868 74.4787C81.976 74.9917 90.2402 75.4891 98.3602 74.9477C99.0433 74.9021 102.528 74.7636 100.938 73.4584C100.01 72.6966 96.2507 73.1976 95.0452 73.1612C90.7933 73.033 86.5372 73.0046 82.2867 72.8435C78.0916 72.6845 73.9151 72.2131 69.7187 72.0965C64.8433 71.9609 59.9571 72.0493 55.0801 72.0493Z" fill="#89C5CC"/>
<path fill-rule="evenodd" clip-rule="evenodd" d="M52.8892 59.604C56.3022 59.7529 59.6788 64.6989 56.2256 67.0893C52.986 69.3322 46.9145 66.8742 48.7159 62.5249C48.4569 63.1537 49.0433 61.8418 49.0507 61.833C49.3933 61.4297 50.0084 60.9833 50.4306 60.6654C50.9138 60.3015 51.417 59.901 51.9996 59.7187C52.3821 59.5991 52.322 60.0493 52.8892 59.604ZM51.227 57.8202C49.6297 58.4434 48.9007 59.1464 47.8029 60.4186C47.0434 61.299 46.0751 61.7622 46.0837 62.9519C46.0855 63.2152 46.4241 63.5046 46.4825 63.7582C46.5633 64.1088 46.4697 64.5578 46.5338 64.9302C47.1946 68.7731 51.7831 70.0687 55.1418 69.3432C58.0675 68.7112 60.2556 65.9048 59.5778 62.8531C58.8955 59.7812 54.3367 56.6048 51.227 57.8202Z" fill="#89C5CC"/>
<path fill-rule="evenodd" clip-rule="evenodd" d="M49.8042 63.1848C49.8042 64.5672 51.9895 64.5672 51.9895 63.1848C51.9895 61.8182 49.8042 61.7594 49.8042 63.1848Z" fill="#89C5CC"/>
<path fill-rule="evenodd" clip-rule="evenodd" d="M52.5382 62.905C52.5382 64.0036 54.2746 64.0036 54.2746 62.905C54.2746 61.819 52.5382 61.7726 52.5382 62.905Z" fill="#89C5CC"/>
<path fill-rule="evenodd" clip-rule="evenodd" d="M53.0759 65.1704C52.5198 65.384 51.8145 64.9411 51.358 65.2329C50.5496 65.7501 51.36 66.218 51.7934 66.4258C53.7445 67.3614 54.0916 64.7817 53.0759 65.1704Z" fill="#89C5CC"/>
<path fill-rule="evenodd" clip-rule="evenodd" d="M82.8733 62.1066C82.8152 62.1313 82.6081 62.2189 82.8733 62.1066V62.1066ZM74.3766 60.8657C72.9164 61.1952 71.6834 62.5579 70.0968 62.3755C68.8809 62.2358 68.0577 61.0634 66.8574 60.893C65.3219 60.6748 61.1431 64.1749 63.3401 64.7755C64.622 65.126 65.3331 62.7852 66.4656 62.6608C67.3614 62.5624 68.5797 63.6602 69.508 63.8165C71.2398 64.1081 72.4292 63.1548 73.9495 62.5401C75.6015 61.8721 76.5414 62.4737 77.9781 63.2161C79.1122 63.8021 80.1802 64.1837 81.4779 63.9419C82.6957 63.7151 84.2256 62.4637 85.4515 62.5921C86.6522 62.7179 87.5091 63.9699 88.7441 64.0862C89.2533 64.1339 90.0112 64.3073 89.9256 63.5223C89.8572 62.8937 89.1553 63.0001 88.7162 62.7716C87.5869 62.184 86.5307 61.1432 85.1678 61.232C84.1426 61.2989 83.2093 62.0186 82.2646 62.363C79.1705 63.4906 77.4311 60.1812 74.3766 60.8657Z" fill="#89C5CC"/>
<path fill-rule="evenodd" clip-rule="evenodd" d="M76.9614 80.7771C70.9931 80.8319 65.0046 80.9205 59.053 81.3986C57.642 81.5118 43.2344 82.8711 43.2618 82.9691C43.3122 83.1502 45.1654 83.4269 45.1538 83.4697C45.0289 83.1601 44.7434 83.032 44.2975 83.0855C57.9618 83.0855 71.5828 81.8629 85.2651 82.0829C88.703 82.138 92.1539 82.1149 95.5894 82.2232C96.4471 82.2503 98.5722 82.8646 99.2457 82.4776C101.013 81.4619 97.802 81.3446 97.2701 81.302C90.5368 80.7638 83.7137 80.7099 76.9614 80.7771Z" fill="#69A1AC"/>
<path fill-rule="evenodd" clip-rule="evenodd" d="M41.493 83.6748C40.6007 84.5688 41.4223 87.7846 41.4574 88.9933C41.5083 90.7407 41.4664 92.5005 41.6198 94.2434C41.795 96.2343 42.0668 98.3554 42.5895 100.287C42.8774 101.351 43.888 103.042 44.2884 101.109C44.5743 99.7277 44.1402 97.8956 43.9891 96.4887C43.787 94.6067 43.7381 92.7494 43.7305 90.8582C43.7238 89.2102 43.692 87.5555 43.5568 85.9128C43.4865 85.0598 43.0572 82.1201 41.493 83.6748Z" fill="#69A1AC"/>
<path fill-rule="evenodd" clip-rule="evenodd" d="M63.9413 100.052C59.7059 100.125 55.4614 100.225 51.2332 100.489C49.5002 100.597 47.7686 100.759 46.042 100.942C45.6897 100.979 41.7899 101.137 43.5325 102.576C44.319 103.225 47.5543 102.327 48.623 102.234C50.4202 102.076 52.2171 101.974 54.0195 101.898C58.1958 101.72 62.3849 101.564 66.5654 101.636C74.2001 101.769 81.7857 101.828 89.4227 101.658C90.5076 101.634 99.0081 101.861 99.2968 100.732C99.5294 99.8234 96.4896 100.24 95.9353 100.257C93.902 100.318 91.8685 100.304 89.8345 100.293C81.2179 100.249 72.5513 99.9066 63.9413 100.052Z" fill="#69A1AC"/>
<path fill-rule="evenodd" clip-rule="evenodd" d="M97.8576 82.1665C97.9921 85.9348 98.6343 89.6986 98.8396 93.4782C98.9334 95.2059 99.0439 96.9321 99.1285 98.6604C99.1558 99.218 98.931 100.561 99.5908 100.882C100.496 101.322 100.618 100.436 100.787 99.836C101.277 98.1043 100.946 95.8548 100.901 94.0761C100.858 92.3535 100.855 90.628 100.728 88.9086C100.598 87.152 100.244 85.4286 100.08 83.6781C100.01 82.9379 100.253 81.7059 99.4665 81.2465C98.7867 80.8494 97.8283 81.3498 97.8576 82.1665Z" fill="#69A1AC"/>
<path fill-rule="evenodd" clip-rule="evenodd" d="M56.2279 88.4348C56.2441 88.4472 56.2601 88.4597 56.276 88.4723C56.2601 88.4597 56.2439 88.4474 56.2279 88.4348ZM52.6287 87.3184C53.9708 87.7015 55.0731 87.5586 56.3552 88.5349C57.4181 89.3445 58.5082 90.5288 58.8608 91.8378C59.6752 94.862 56.9141 96.5193 54.3255 96.5519C51.6742 96.5852 47.7497 95.9707 47.8855 92.5747C47.9897 89.9655 49.8963 87.4197 52.6287 87.3184ZM52.7232 85.6093C49.2429 85.7825 46.4354 89.688 46.4656 92.9756C46.5019 96.96 51.02 97.9865 54.2294 98.0141C57.8516 98.0452 61.4637 95.5459 60.493 91.4755C59.7153 88.2143 56.0701 85.4355 52.7232 85.6093Z" fill="#69A1AC"/>
<path fill-rule="evenodd" clip-rule="evenodd" d="M49.2223 90.959C49.2223 92.0701 50.979 92.0701 50.979 90.959C50.979 89.8606 49.2223 89.8135 49.2223 90.959Z" fill="#69A1AC"/>
<path fill-rule="evenodd" clip-rule="evenodd" d="M52.9071 90.4716C52.9071 91.5914 54.6778 91.5914 54.6778 90.4716C54.6778 89.3644 52.9071 89.3169 52.9071 90.4716Z" fill="#69A1AC"/>
<path fill-rule="evenodd" clip-rule="evenodd" d="M50.8756 93.0058C49.7322 94.1465 53.7491 96.1464 54.6964 94.5593C55.4745 93.256 53.7804 93.6881 53.1799 93.6176C52.5272 93.5408 51.4083 92.4749 50.8756 93.0058Z" fill="#69A1AC"/>
<path fill-rule="evenodd" clip-rule="evenodd" d="M82.9914 90.4944C82.8813 90.5406 82.8813 90.5406 82.9914 90.4944V90.4944ZM67.9069 88.6373C66.7491 88.8542 62.9495 90.1351 62.8982 91.5078C62.8045 94.0027 66.5256 91.4473 67.3337 91.119C69.5288 90.2277 70.6822 92.046 72.8873 92.1419C74.8024 92.2253 76.5634 90.5876 78.3674 90.7812C80.2576 90.9841 81.1668 92.9935 83.3489 91.9266C84.5034 91.3623 84.4742 90.4922 83.1784 90.4102C82.3951 90.3606 81.857 90.6841 81.0403 90.3473C79.7632 89.821 79.2489 88.9639 77.7206 89.1001C76.5674 89.2028 75.5251 89.8523 74.3994 90.1037C71.8218 90.6791 70.3921 88.1721 67.9069 88.6373Z" fill="#69A1AC"/>
<path fill-rule="evenodd" clip-rule="evenodd" d="M91.8838 91.5776C91.8042 91.6111 91.8042 91.6111 91.8838 91.5776V91.5776ZM92.1759 90.5388C92.1886 90.5444 92.276 90.6654 92.1759 90.5388V90.5388ZM90.8487 89.7458C90.7988 89.7842 90.7988 89.7842 90.8487 89.7458V89.7458ZM90.8776 89.736C91.135 89.8899 93.2042 91.3038 91.7012 91.6368C90.9383 91.8058 90.307 90.2717 90.8776 89.736ZM90.1925 88.1697C86.8779 89.6799 90.4447 95.0841 93.046 92.8884C94.1405 91.9644 94.2846 90.0969 93.2197 89.1343C92.5817 88.5575 91.0586 87.7744 90.1925 88.1697Z" fill="#69A1AC"/>
<path fill-rule="evenodd" clip-rule="evenodd" d="M59.078 109.466C54.942 109.467 50.7697 109.38 46.6393 109.625C45.9442 109.667 43.2962 109.534 42.938 110.261C42.2828 111.589 45.0074 110.929 45.4033 110.89C53.6274 110.067 62.2182 110.54 70.4694 110.775C77.2177 110.966 83.9299 111.085 90.6702 111.433C92.4419 111.524 94.212 111.625 95.9825 111.732C96.5595 111.767 98.0118 112.149 98.1335 111.228C98.246 110.376 96.4344 110.568 95.9819 110.544C92.383 110.355 88.7865 110.157 85.1886 109.954C76.5286 109.466 67.7518 109.464 59.078 109.466Z" fill="#89C5CC"/>
<path fill-rule="evenodd" clip-rule="evenodd" d="M42.8052 110.943C42.0326 111.71 42.3948 114.64 42.3732 115.609C42.3355 117.303 42.2555 118.995 42.2196 120.689C42.1823 122.459 42.2341 124.237 42.3389 126.004C42.3828 126.746 42.9923 130.333 43.952 128.28C44.3808 127.363 43.9416 124.809 43.9482 123.769C43.96 121.878 44.0619 119.995 44.1561 118.106C44.2371 116.482 44.2401 114.857 44.3111 113.233C44.3337 112.715 44.3949 109.349 42.8052 110.943Z" fill="#89C5CC"/>
<path fill-rule="evenodd" clip-rule="evenodd" d="M98.8292 126.073C94.8041 126.486 90.7144 126.291 86.674 126.595C83.1918 126.858 79.7128 126.965 76.2217 127.039C68.3162 127.205 60.3973 127.368 52.5148 128.026C50.7184 128.176 48.9241 128.336 47.1228 128.416C46.222 128.456 42.442 128.046 42.1605 128.995C41.681 130.611 45.7234 129.972 46.5953 129.947C48.5127 129.891 50.4211 129.753 52.333 129.607C60.3704 128.995 68.4385 128.812 76.493 128.558C80.8736 128.42 85.2237 128.1 89.5945 127.808C91.773 127.663 93.9576 127.658 96.1359 127.518C96.7059 127.481 98.7234 127.553 99.1334 127.095C99.4152 126.78 99.4864 126.012 98.8292 126.073Z" fill="#89C5CC"/>
<path fill-rule="evenodd" clip-rule="evenodd" d="M97.4649 111.218C97.603 115.075 97.8211 118.929 97.9513 122.786C97.9906 123.946 97.6399 126.025 98.2863 127.048C99.3256 128.692 100.137 126.952 100.327 125.927C100.928 122.692 100.282 119.119 100.114 115.864C100.05 114.622 100.436 111.859 99.8358 110.748C99.2638 109.689 97.4136 109.795 97.4649 111.218Z" fill="#89C5CC"/>
<path fill-rule="evenodd" clip-rule="evenodd" d="M90.7072 116.711C92.2493 117.129 92.4745 120.479 90.7345 120.727C88.1446 121.096 89.2772 117.402 90.7072 116.711ZM90.2752 115.379C89.8048 115.364 88.719 115.235 88.4291 115.617C88.1865 115.938 88.4317 116.613 88.4034 116.918C88.3014 118.008 87.4146 118.637 87.811 119.924C88.0801 120.798 88.8008 121.618 89.6791 121.922C94.3138 123.522 94.2574 114.574 90.2752 115.379Z" fill="#89C5CC"/>
<path fill-rule="evenodd" clip-rule="evenodd" d="M48.4314 115.98C48.4199 115.995 48.4083 116.01 48.3969 116.024C48.4083 116.01 48.4199 115.995 48.4314 115.98ZM52.0716 114.045C52.0535 113.89 52.0353 113.735 52.0172 113.58C54.5301 114.765 56.5297 116.97 55.6953 119.929C55.0586 122.187 52.7584 122.988 50.6154 122.431C48.2431 121.814 47.1094 119.86 47.7491 117.46C48.0442 116.353 48.9504 114.866 50.1218 114.51C50.667 114.344 51.8729 114.767 52.0716 114.045ZM50.6022 113.107C49.9665 113.15 49.3478 113.415 48.8291 113.777C49.3147 113.366 49.9619 113.122 50.6022 113.107ZM50.6204 111.649C49.0501 111.697 48.0212 112.647 47.0899 113.788C46.7976 114.146 45.8094 115.095 45.9317 115.578C46.0285 115.959 46.2816 116.517 46.8148 116.092C44.0225 121.652 51.2359 126.395 55.6394 122.528C59.7491 118.92 55.6717 111.48 50.6204 111.649Z" fill="#89C5CC"/>
<path fill-rule="evenodd" clip-rule="evenodd" d="M49.1936 116.815C49.1936 117.555 50.344 117.555 50.344 116.815C50.344 116.074 49.1936 116.074 49.1936 116.815Z" fill="#89C5CC"/>
<path fill-rule="evenodd" clip-rule="evenodd" d="M51.1569 116.941C51.1569 117.694 52.3258 117.694 52.3258 116.941C52.3258 116.189 51.1569 116.189 51.1569 116.941Z" fill="#89C5CC"/>
<path fill-rule="evenodd" clip-rule="evenodd" d="M52.0477 119.584C51.5008 119.629 49.4991 119.443 49.1477 119.922C48.5605 120.721 49.4977 120.749 49.958 120.836C50.3726 120.913 52.1748 120.869 52.4288 120.502C52.6532 120.176 52.6008 119.537 52.0477 119.584Z" fill="#89C5CC"/>
<path fill-rule="evenodd" clip-rule="evenodd" d="M76.1657 117.51C76.0718 117.549 76.0718 117.549 76.1657 117.51V117.51ZM68.602 116.957C67.3698 117.048 66.3261 117.756 65.148 118.038C63.8904 118.34 63.3462 117.785 62.2027 117.422C61.0132 117.044 60.167 117.194 59.211 118.005C58.6693 118.465 57.4807 119.524 57.8193 120.341C58.5946 122.211 60.3496 119.168 61.175 119.027C62.4627 118.806 63.6083 119.931 65.0931 119.609C66.4387 119.318 67.6326 118.395 69.038 118.385C70.2131 118.376 71.3207 119.019 72.4809 119.174C74.252 119.412 75.415 118.784 77.0522 118.317C78.472 117.912 79.4676 118.446 80.8029 118.895C81.4132 119.1 83.4497 119.845 83.0748 118.493C82.9689 118.112 80.2852 117.429 79.8692 117.297C78.4019 116.834 77.4728 117.015 76.0752 117.547C74.9096 117.992 73.9291 118.208 72.6794 117.963C71.3025 117.694 70.0503 116.847 68.602 116.957Z" fill="#89C5CC"/>
</g>
<g opacity="0.5">
<path fill-rule="evenodd" clip-rule="evenodd" d="M125.298 54.9698C125.497 50.6944 125.771 46.4249 125.915 42.1469C125.986 40.027 126.042 37.9069 126.096 35.7866C126.108 35.3145 126.121 34.8426 126.131 34.3704C126.166 32.7665 125.976 32.6353 127.591 32.4929C134.797 31.8573 142.032 31.6466 149.247 31.0715C157.948 30.378 166.695 29.8991 175.421 29.6844C179.299 29.5888 183.193 29.3909 187.071 29.5114C187.93 29.5381 189.617 29.3147 189.955 29.9821C190.102 30.2705 189.795 31.2627 189.756 31.5954C189.634 32.6349 189.521 33.6779 189.451 34.7225C189.038 40.8834 189.284 47.1997 190.478 53.2673C187.678 51.6892 184.139 50.3317 180.875 50.6012C177.547 50.8758 175.058 52.7971 172.394 54.5655C170.887 55.5658 170.38 55.8288 168.876 54.8599C167.581 54.0247 166.355 53.0699 165.133 52.1328C163.247 50.6866 161.467 49.1185 159.638 47.6023C156.275 44.8146 151.642 40.8466 146.998 42.0149C143.679 42.8496 140.615 44.672 137.735 46.4556C133.456 49.1053 129.583 52.3503 125.298 54.9698ZM182.97 27.6127C166.437 27.6127 150.027 29.2143 133.541 30.0807C131.819 30.1711 130.103 30.3043 128.388 30.4698C127.244 30.5801 124.448 30.1169 123.699 31.0932C123.199 31.7446 123.628 31.8424 123.699 32.4612C123.787 33.2412 123.735 34.1653 123.712 34.9909C123.657 36.9802 123.599 38.9693 123.554 40.9587C123.383 48.4777 123.276 55.9953 123.581 63.5123C123.647 65.1517 124.245 67.4215 123.918 69.0145C123.681 70.1678 122.89 70.8698 124.715 71.0828C126.512 71.2927 128.708 70.759 130.506 70.5882C132.314 70.4161 134.122 70.2296 135.933 70.0804C143.804 69.4323 151.752 69.5302 159.644 69.3148C167.607 69.0975 175.573 69.0836 183.539 69.0792C186.872 69.0774 190.681 69.2646 193.933 68.348C195.077 68.0254 195.262 67.8665 194.98 66.7321C194.927 66.5169 194.581 66.4374 194.48 66.0483C194.342 65.5189 194.413 64.8753 194.38 64.3241C194.275 62.524 194.238 60.7207 194.153 58.9194C194.012 55.9099 193.493 52.9891 193.109 50.0098C192.666 46.5691 192.688 43.0756 192.679 39.6124C192.674 37.6915 192.724 35.7769 192.878 33.8613C192.977 32.6327 193.582 30.7983 193.275 29.6526C193.122 29.0821 192.872 28.6297 192.278 28.3841C191.901 28.2284 191.585 28.3503 191.213 28.3109C190.771 28.2641 190.496 28.2021 189.967 28.0825C187.701 27.5693 185.279 27.6127 182.97 27.6127Z" fill="#69A1AC"/>
<path fill-rule="evenodd" clip-rule="evenodd" d="M173.82 35.7925C173.819 36.9898 173.632 38.7567 174.184 39.8841C174.885 41.3142 175.762 40.8672 175.994 39.5233C176.127 38.7533 176.124 36.4745 175.876 35.7925C175.526 34.8271 173.82 34.1696 173.82 35.7925Z" fill="#89C5CC"/>
<path fill-rule="evenodd" clip-rule="evenodd" d="M175.831 36.2548C174.706 36.2944 171.43 36.0246 170.668 36.9285C169.363 38.4787 171.636 38.7532 172.612 38.6664C173.741 38.5661 177.23 38.811 177.987 37.9062C179.252 36.3924 176.715 36.2226 175.831 36.2548Z" fill="#89C5CC"/>
<path fill-rule="evenodd" clip-rule="evenodd" d="M132.177 76.2546C137.123 77.113 135.584 84.6475 130.905 82.9024C129.274 82.2943 126.872 80.5372 127.773 78.4669C128.446 76.9201 130.64 76.1072 132.177 76.2546ZM130.13 73.9119C126.914 74.4529 124.715 77.9308 125.818 80.9645C126.881 83.8913 130.916 86.0344 133.892 84.9827C136.733 83.9785 138.15 80.2017 137.192 77.4388C136.192 74.5521 132.932 73.4406 130.13 73.9119Z" fill="#89C5CC"/>
<path fill-rule="evenodd" clip-rule="evenodd" d="M160.21 77.136C158.979 77.2381 157.915 78.0995 156.676 78.252C155.518 78.3946 154.558 77.9986 153.473 77.6819C152.162 77.2994 150.959 77.1312 149.62 77.4711C148.596 77.7309 147.586 78.4271 146.522 78.5111C144.43 78.6762 141.997 76.2903 140.364 78.9888C139.58 80.2825 140.718 81.1159 141.889 80.5125C143.111 79.8837 142.511 79.6585 144.026 80.03C145.29 80.3397 146.312 80.5079 147.578 80.0738C148.725 79.6808 149.732 78.9613 150.978 78.8805C152.199 78.8014 153.261 79.357 154.428 79.5967C155.863 79.8914 157.132 79.6684 158.492 79.219C159.785 78.7915 160.301 78.5577 161.606 78.939C162.432 79.1806 164.237 79.9478 165.041 79.3295C166.432 78.2606 164.57 78.1043 163.837 77.9524C162.657 77.708 161.435 77.0358 160.21 77.136Z" fill="#89C5CC"/>
<path fill-rule="evenodd" clip-rule="evenodd" d="M188.387 76.4178C188.396 76.4254 188.406 76.433 188.416 76.4405C188.406 76.433 188.396 76.4254 188.387 76.4178ZM187.178 76.1652C188.975 76.2808 190.919 79.5529 188.537 79.669C186.861 79.7508 184.985 76.8856 187.178 76.1652ZM186.926 73.4877C181.242 75.0738 183.84 83.0812 189.323 82.1562C191.813 81.7361 192.657 78.8532 191.833 76.7191C191.48 75.8026 190.791 75.0298 189.967 74.5023C189.359 74.1132 187.62 73.2944 186.926 73.4877Z" fill="#89C5CC"/>
<path fill-rule="evenodd" clip-rule="evenodd" d="M160.408 90.2044C165.409 90.0328 170.411 89.8613 175.418 89.8149C178.132 89.7898 180.83 89.8372 183.54 89.9926C184.741 90.0615 185.942 90.128 187.145 90.1787C187.352 90.1875 187.639 90.1734 187.955 90.1579C188.699 90.1213 189.608 90.0767 190.036 90.3026C192.428 91.567 187.555 91.7056 186.962 91.6957C185.636 91.6734 184.311 91.6079 182.985 91.5424C181.827 91.4852 180.669 91.428 179.51 91.3996C172.072 91.217 164.59 91.5509 157.14 91.8833L157.14 91.8833C155.432 91.9595 153.726 92.0357 152.022 92.1055C150.214 92.1796 148.406 92.2276 146.598 92.2756L146.598 92.2756L146.598 92.2756C144.013 92.3442 141.429 92.4128 138.844 92.5579C137.857 92.6133 136.871 92.672 135.884 92.7307C134.471 92.8147 133.057 92.8988 131.643 92.9733C130.536 93.0316 129.429 93.0882 128.32 93.116C128.12 93.1211 127.86 93.1488 127.577 93.1791C126.889 93.2524 126.062 93.3405 125.616 93.158C125.078 92.9384 124.644 92.6314 124.939 91.9806C125.189 91.4305 126.097 91.4964 126.759 91.5445C126.94 91.5577 127.102 91.5695 127.228 91.567C129.344 91.526 131.455 91.4073 133.567 91.2781C134.34 91.2308 135.112 91.1823 135.885 91.1338C139.906 90.881 143.923 90.6285 147.954 90.5599C152.107 90.4891 156.257 90.3467 160.408 90.2044ZM186.531 123.099L187.968 123.081C188.711 123.146 189.043 123.925 188.566 124.523C188.201 124.982 186.797 125.003 185.881 125.016C185.627 125.02 185.411 125.023 185.265 125.035C182.874 125.227 180.488 125.313 178.09 125.336C173.041 125.384 168.011 125.6 162.97 125.888C157.809 126.182 152.644 126.292 147.48 126.403L147.479 126.403C143.679 126.484 139.879 126.566 136.081 126.72C133.906 126.808 131.73 126.874 129.554 126.931C129.32 126.937 129.009 126.971 128.657 127.009L128.657 127.009C127.283 127.157 125.285 127.373 124.832 126.282C124.431 125.314 124.989 124.868 125.806 124.665C125.677 124.092 125.701 123.287 125.714 122.825C125.718 122.686 125.721 122.579 125.719 122.518C125.699 121.939 125.684 121.36 125.67 120.782C125.654 120.126 125.638 119.47 125.612 118.815C125.59 118.22 125.568 117.624 125.547 117.028C125.463 114.678 125.378 112.323 125.197 109.982C125.114 108.902 124.981 107.834 124.849 106.768C124.638 105.067 124.427 103.369 124.417 101.632C124.416 101.32 124.4 100.929 124.382 100.488C124.292 98.2325 124.149 94.6668 125.55 93.5809C128.021 92.1404 127.532 96.2983 127.314 98.1539C127.278 98.4603 127.25 98.7039 127.243 98.8492C127.101 101.935 127.294 104.884 127.605 107.951C127.814 110.021 127.692 112.085 127.569 114.152C127.525 114.89 127.481 115.629 127.453 116.369C127.438 116.735 127.426 117.101 127.413 117.466C127.374 118.592 127.335 119.716 127.251 120.84C127.241 120.962 127.238 121.195 127.234 121.493C127.223 122.334 127.206 123.69 127.026 124.513C127.409 124.496 127.781 124.5 128.088 124.504H128.088H128.088C128.284 124.506 128.454 124.508 128.583 124.504C129.173 124.486 129.762 124.469 130.352 124.451C132.094 124.4 133.836 124.349 135.578 124.284C139.69 124.129 143.803 124.078 147.916 124.026H147.916H147.916C152.774 123.965 157.632 123.904 162.487 123.674C170.49 123.294 178.52 123.196 186.531 123.099H186.531H186.531ZM188.015 92.9334C188.011 98.219 188.42 103.36 188.897 108.624C189.193 111.88 189.43 115.149 189.619 118.413C189.627 118.565 189.626 118.817 189.624 119.133C189.615 120.938 189.594 124.828 191.379 123.897C192.728 123.195 192.21 119.121 191.923 116.867L191.923 116.866C191.86 116.372 191.808 115.965 191.79 115.701C191.751 115.137 191.712 114.573 191.673 114.01C191.494 111.393 191.314 108.778 191.078 106.164L191.028 105.613L191.028 105.612C190.755 102.593 190.481 99.5766 190.433 96.5435C190.429 96.2927 190.453 95.9433 190.48 95.5486C190.559 94.4067 190.664 92.8862 190.19 92.2796C189.522 91.4264 188.016 91.6787 188.015 92.9334Z" fill="#69A1AC"/>
<path fill-rule="evenodd" clip-rule="evenodd" d="M160.636 105.891C167.025 103.003 173.488 100.081 180.131 98.0003C180.612 97.8501 180.915 98.3449 180.806 98.7601C180.694 99.1879 179.654 99.5529 178.965 99.7949C178.759 99.8674 178.584 99.9288 178.475 99.9776C177.547 100.392 176.617 100.801 175.686 101.21C174.734 101.629 173.781 102.047 172.831 102.472C170.855 103.354 168.877 104.232 166.9 105.11C164.782 106.051 162.664 106.991 160.548 107.937C160.468 107.973 160.388 108.008 160.308 108.044C163.184 109.066 166.044 110.133 168.892 111.233C169.865 111.608 170.835 111.992 171.805 112.375C172.354 112.592 172.903 112.809 173.452 113.025C173.631 113.095 173.942 113.19 174.317 113.304C175.536 113.676 177.423 114.252 177.562 114.833C177.789 115.781 175.185 114.864 174.202 114.519C174.072 114.473 173.97 114.437 173.907 114.417C172.457 113.954 171.024 113.438 169.592 112.922L169.394 112.85C168.259 112.442 167.125 112.029 165.992 111.616C163.778 110.809 161.564 110.003 159.339 109.229C159.024 109.119 158.709 109.01 158.394 108.901C154.822 110.505 151.257 112.123 147.704 113.768C145.799 114.649 143.904 115.552 142.014 116.466C141.602 116.666 141.091 116.974 140.536 117.309C139.206 118.112 137.623 119.068 136.534 119.045C135.95 119.032 135.557 118.907 135.496 118.199C135.433 117.47 136.37 117.087 137.044 116.812C137.205 116.746 137.351 116.686 137.465 116.629C139.485 115.62 141.517 114.636 143.555 113.664C147.603 111.735 151.689 109.883 155.789 108.067C155.813 108.057 155.836 108.046 155.86 108.036C153.586 107.267 151.306 106.516 149.02 105.781C148.792 105.708 148.324 105.578 147.709 105.408C144.804 104.604 138.615 102.891 138.89 101.891C139.206 100.746 145.009 102.838 147.577 103.764C148.059 103.938 148.427 104.07 148.624 104.133C151.695 105.111 154.758 106.117 157.804 107.168C158.747 106.745 159.691 106.318 160.636 105.891Z" fill="#89C5CC"/>
<path fill-rule="evenodd" clip-rule="evenodd" d="M133.262 131.028C135.132 131.355 136.452 133.148 136.246 135.025C135.969 137.562 133.439 138.724 131.102 138.393C128.45 138.018 127.892 135.778 129.177 133.622C129.462 133.145 129.789 132.574 130.306 132.323C130.661 132.15 131.114 132.303 131.401 132.164C132.404 131.676 131.801 130.898 133.262 131.028ZM132.411 129.371C130.129 129.662 125.913 132.301 126.126 134.941C126.311 135.247 126.59 135.372 126.962 135.317C126.872 135.888 126.901 136.454 127.049 137.014C127.266 137.741 127.698 138.336 128.278 138.809C129.471 139.784 131.102 140.023 132.588 139.852C135.363 139.533 137.55 137.638 137.706 134.755C137.858 131.94 135.399 128.994 132.411 129.371Z" fill="#89C5CC"/>
<path fill-rule="evenodd" clip-rule="evenodd" d="M143.463 132.806C142.44 133.348 140.82 134.181 140.219 135.211C139.585 136.299 140.242 137.489 141.578 136.974C142.639 136.566 143.314 135.268 144.446 134.852C145.444 134.485 145.847 134.672 146.902 135.038C147.99 135.414 148.941 135.778 150.117 135.686C151.594 135.57 152.874 134.713 154.321 134.519C155.538 134.355 156.543 134.828 157.709 135.017C159.062 135.235 159.947 134.723 161.213 134.457C162.074 134.275 163.592 135.013 164.22 134.737C165.633 134.117 164.138 133.358 163.357 133.107C162.039 132.685 161.229 133.058 159.976 133.408C158.616 133.788 158.029 133.502 156.728 133.153C154.098 132.447 152.066 134.154 149.573 133.844C147.264 133.557 145.883 131.526 143.463 132.806Z" fill="#89C5CC"/>
<path fill-rule="evenodd" clip-rule="evenodd" d="M186.475 131.544C189.007 133.916 186.162 137.291 183.371 135.395C182.388 134.728 182.373 133.656 183.137 132.698C183.837 131.821 185.373 131.479 186.475 131.544ZM185.536 129.628C183.171 130.087 180.94 131.172 180.726 133.9C180.516 136.562 183.249 137.798 185.544 137.623C190.697 137.231 190.324 128.703 185.536 129.628Z" fill="#89C5CC"/>
</g>
<path opacity="0.5" fill-rule="evenodd" clip-rule="evenodd" d="M241.568 41.226C239.676 41.2625 235.003 41.9502 234.309 44.1868C233.782 45.8846 235.348 45.5118 236.187 44.894C237.323 44.0586 238.319 43.5587 239.726 43.3045C245.086 42.3357 250.236 45.8099 255.545 46.2493C257.556 46.4158 259.983 46.5242 261.903 45.8734C263.27 45.41 263.449 44.3995 261.888 44.2456C260.563 44.1149 259.096 44.5269 257.736 44.5152C252.112 44.4671 247.112 41.1203 241.568 41.226Z" fill="#C1DEE2"/>
<g opacity="0.5">
<path fill-rule="evenodd" clip-rule="evenodd" d="M42.7619 147.444C39.1417 147.484 35.5234 147.618 31.9104 147.846C28.4746 148.064 24.7466 147.899 21.3668 148.564C20.407 148.753 19.1106 149.627 20.3867 150.588C21.2837 151.264 24.5653 150.487 25.6364 150.421C29.5809 150.179 33.5274 149.889 37.4775 149.749C41.217 149.617 44.9563 149.57 48.6976 149.533C49.2688 149.528 50.217 149.345 50.7858 149.51C51.6031 149.749 51.4092 149.813 51.4704 150.85C51.5813 152.728 51.5506 154.613 51.5134 156.493C51.4773 158.313 51.41 160.132 51.4166 161.952C51.4211 163.25 51.0057 165.831 51.6578 166.959C52.5964 168.582 53.5701 166.819 53.6403 165.74C53.7745 163.677 53.7144 161.588 53.715 159.523C53.7154 157.584 53.7293 155.645 53.661 153.707C53.6114 152.307 53.8116 149.863 53.0569 148.59C52.2882 147.294 50.4375 147.573 49.0871 147.512C46.9805 147.415 44.8702 147.422 42.7619 147.444Z" fill="#89C5CC"/>
<path fill-rule="evenodd" clip-rule="evenodd" d="M19.7287 149.783C19.7327 153.426 19.3109 157.045 19.1927 160.684C19.1385 162.357 19.0286 164.195 19.4521 165.837C19.8797 167.496 21.2377 167.855 21.3941 166.003C21.7109 162.255 21.6332 158.367 21.8798 154.588C21.9669 153.254 22.5335 150.809 22.0046 149.559C21.5387 148.459 19.7267 148.248 19.7287 149.783Z" fill="#89C5CC"/>
<path fill-rule="evenodd" clip-rule="evenodd" d="M53.6758 165.842C47.3888 166.674 40.8164 166.371 34.4846 166.501C31.4469 166.564 28.4097 166.568 25.3715 166.6C24.3112 166.611 21.6185 166.208 20.7012 166.803C19.241 167.751 20.8253 168.483 21.792 168.504C27.7877 168.635 33.8501 168.36 39.8445 168.163C42.5378 168.075 45.2399 168.032 47.926 167.803C49.5797 167.662 51.3867 167.526 52.9926 167.082C53.3347 166.987 54.0796 167.007 54.1563 166.54C54.2036 166.252 54.1179 165.781 53.6758 165.842Z" fill="#89C5CC"/>
<path fill-rule="evenodd" clip-rule="evenodd" d="M27.5328 171.138C25.7854 171.148 20.52 170.337 19.7964 172.04C18.8317 174.31 22.5951 173.78 23.6072 173.754C25.906 173.695 28.2032 173.689 30.5026 173.69C32.7588 173.691 35.0147 173.676 37.2705 173.623C37.924 173.607 39.4452 173.878 39.8211 173.092C40.1068 172.494 39.8811 172.023 39.3541 171.706C38.0862 170.945 34.7922 171.386 33.3077 171.318C31.3856 171.229 29.4572 171.138 27.5328 171.138Z" fill="#89C5CC"/>
<path fill-rule="evenodd" clip-rule="evenodd" d="M48.7901 171.558C47.7915 171.618 45.7716 171.206 44.8771 171.663C43.8603 172.182 44.2186 172.995 45.0964 173.352C45.7043 173.599 48.1979 173.469 48.7901 173.183C49.4073 172.884 50.1052 171.477 48.7901 171.558Z" fill="#89C5CC"/>
<path fill-rule="evenodd" clip-rule="evenodd" d="M59.7378 150.141C58.6713 150.433 58.9949 156.484 58.9674 157.443C58.8921 160.071 58.5964 163.376 59.4703 165.907C60.0275 167.52 61.0978 167.301 60.9155 165.603C60.7554 164.112 60.4806 162.638 60.3617 161.138C60.0927 157.742 59.7267 154.12 59.9807 150.722C60.0889 150.92 61.1006 152.751 61.3387 152.615C61.2668 152.657 60.1718 150.026 59.7378 150.141Z" fill="#89C5CC"/>
<path fill-rule="evenodd" clip-rule="evenodd" d="M71.7347 147.912C69.5764 147.944 67.418 147.983 65.2603 148.042C63.5447 148.09 60.8488 147.808 59.2754 148.53C57.402 149.388 58.2908 151.301 60.0504 151.342C61.6071 151.378 63.2671 151.027 64.8379 150.973C69.0807 150.828 73.331 150.797 77.5758 150.761C81.4147 150.728 85.4167 151.137 89.222 150.561C89.7864 155.569 88.2599 160.598 88.7791 165.664C88.8596 166.45 88.8235 167.561 89.8255 167.74C91.09 167.966 91.142 166.714 91.19 165.818C91.3269 163.259 91.2528 160.698 91.4403 158.136C91.614 155.762 91.9561 153.335 91.667 150.956C91.3116 148.03 89.9082 148.264 87.4272 148.143C82.1875 147.886 76.9802 147.836 71.7347 147.912Z" fill="#89C5CC"/>
<path fill-rule="evenodd" clip-rule="evenodd" d="M64.5014 165.696C63.4016 165.723 61.575 165.385 60.8703 166.438C60.1371 167.535 61.007 168.491 62.0731 168.716C63.3351 168.983 64.9806 168.618 66.2903 168.614C67.6543 168.61 69.0187 168.625 70.3827 168.63C76.2305 168.653 82.1034 168.741 87.9471 168.5C88.7631 168.466 91.0793 168.74 91.6441 167.957C92.1454 167.264 91.7947 166.641 91.1347 166.288C90.0516 165.708 87.8271 165.928 86.6225 165.882C85.1348 165.826 83.6453 165.807 82.1568 165.784C76.2817 165.694 70.3759 165.55 64.5014 165.696Z" fill="#89C5CC"/>
<path fill-rule="evenodd" clip-rule="evenodd" d="M69.4481 170.764C67.2597 170.802 64.9248 170.706 62.7581 171.037C60.853 171.329 60.6185 173.169 62.6693 173.385C64.5539 173.583 66.8387 173.213 68.7325 173.091C69.4051 173.048 70.1873 173.109 70.5097 172.366C70.8462 171.59 70.2028 170.845 69.4481 170.764Z" fill="#89C5CC"/>
<path fill-rule="evenodd" clip-rule="evenodd" d="M85.9925 170.958C84.8243 170.987 81.4126 170.485 80.834 171.818C79.8709 174.037 84.4896 173.194 85.3756 173.162C86.4924 173.12 90.8447 173.772 90.8457 171.996C90.8467 170.254 87.062 170.931 85.9925 170.958Z" fill="#89C5CC"/>
<path fill-rule="evenodd" clip-rule="evenodd" d="M19.5398 181.986C19.5426 186.024 19.2911 190.099 19.6597 194.127C19.8121 195.792 19.786 198.983 20.7515 200.395C21.4369 201.398 22.3875 201.327 22.7618 200.124C23.0121 199.319 22.6118 197.71 22.5672 196.849C22.5241 196.023 22.4739 195.198 22.4357 194.371C22.3375 192.243 22.3452 190.117 22.3745 187.987C22.3996 186.16 22.8397 183.743 22.4247 181.986C22.0378 180.349 19.5398 179.966 19.5398 181.986Z" fill="#69A1AC"/>
<path fill-rule="evenodd" clip-rule="evenodd" d="M60.1479 178.434C53.1377 178.61 46.1118 178.453 39.1078 178.8C35.6536 178.971 32.213 179.346 28.7761 179.721C27.0876 179.905 25.4 180.094 23.7145 180.302C23.2058 180.364 18.9792 180.528 20.5689 182.134C21.2631 182.836 23.472 182.103 24.3461 182C26.0384 181.8 27.7341 181.626 29.4288 181.447C32.6537 181.106 35.8825 180.783 39.1211 180.604C46.7485 180.182 54.4074 180.308 62.0424 180.027C64.1077 179.951 66.1668 179.896 68.2329 179.978C68.7754 179.999 72.7622 180.201 71.0312 178.73C70.2127 178.034 67.1267 178.393 66.1039 178.372C64.1187 178.331 62.1323 178.385 60.1479 178.434Z" fill="#69A1AC"/>
<path fill-rule="evenodd" clip-rule="evenodd" d="M69.7044 185.237C69.6697 183.371 69.6351 181.506 69.5501 179.642C69.4606 177.679 72.1364 177.382 72.9299 178.971C73.5012 180.115 73.4007 182.061 73.3146 183.729C73.2799 184.401 73.2476 185.028 73.2625 185.539C73.2966 186.711 73.3828 187.923 73.4702 189.15C73.6901 192.239 73.9172 195.43 73.3394 198.346C73.0585 199.763 71.8622 200.508 71.066 199.736C71.0649 199.737 71.0638 199.739 71.0627 199.741C70.7633 200.182 69.8309 200.181 69.1444 200.18C68.9553 200.18 68.7848 200.179 68.6514 200.189C66.7704 200.316 64.9242 200.532 63.06 200.811C59.3454 201.367 55.6631 201.709 51.9082 201.802C49.3605 201.865 46.8092 201.886 44.2573 201.908C39.3705 201.948 34.4813 201.989 29.6102 202.323C27.9679 202.435 26.3505 202.629 24.735 202.938C24.5975 202.964 24.4448 202.998 24.2823 203.034C23.0811 203.301 21.3423 203.687 21.2235 202.01C21.0823 200.019 25.4002 199.758 27.6223 199.624C27.9615 199.604 28.2519 199.586 28.4701 199.566C35.2172 198.939 42.07 199.036 48.8457 199.132C49.174 199.137 49.5021 199.141 49.83 199.146C50.3588 199.153 50.8874 199.162 51.4159 199.17C54.3169 199.218 57.2145 199.266 60.1146 199.089C61.4344 199.008 62.7713 198.966 64.1108 198.925C66.2478 198.859 68.3911 198.792 70.4811 198.566C70.1659 197.345 70.1108 195.904 70.0588 194.545C70.0386 194.016 70.0188 193.5 69.9844 193.014C69.8008 190.425 69.7526 187.831 69.7044 185.237Z" fill="#69A1AC"/>
<path fill-rule="evenodd" clip-rule="evenodd" d="M75.378 181.08C74.431 181.209 73.641 182.019 74.0638 183.046C74.5963 184.339 76.1825 183.834 77.2303 183.752C80.5607 183.491 84.038 184.012 87.3282 183.619C88.2268 183.512 89.5304 183.023 88.7237 181.816C88.1172 180.909 85.9077 181.069 84.9685 180.982C81.7562 180.685 78.5861 180.764 75.378 181.08Z" fill="#C1DEE2"/>
<path fill-rule="evenodd" clip-rule="evenodd" d="M80.9989 186.723C79.7073 186.81 76.7006 186.741 76.1563 188.21C75.18 190.844 79.0042 189.916 80.1685 189.766C81.5211 189.592 84.7097 190.058 85.43 188.747C86.7178 186.404 82.1316 186.645 80.9989 186.723Z" fill="#C1DEE2"/>
<path fill-rule="evenodd" clip-rule="evenodd" d="M77.6775 192.504C77.0649 193.117 77.0639 194.211 77.6775 194.823C78.4288 195.573 80.0658 195.417 81.053 195.472C82.4299 195.549 86.3846 196.277 87.0684 194.657C87.9908 192.471 84.4098 192.516 83.2319 192.392C81.8705 192.249 78.8058 191.376 77.6775 192.504Z" fill="#C1DEE2"/>
<path fill-rule="evenodd" clip-rule="evenodd" d="M29.4094 155.086C29.4094 157.436 33.0828 157.436 33.0828 155.086C33.0828 152.748 29.4094 152.713 29.4094 155.086Z" fill="#89C5CC"/>
<path fill-rule="evenodd" clip-rule="evenodd" d="M36.3771 155.112C36.3771 157.799 40.5611 157.794 40.5611 155.112C40.5611 152.435 36.3771 152.408 36.3771 155.112Z" fill="#89C5CC"/>
<path fill-rule="evenodd" clip-rule="evenodd" d="M32.1619 158.685C30.1281 159.246 32.0018 160.968 32.9461 161.362C34.447 161.987 36.4953 162.448 37.9966 161.511C38.5939 161.137 39.0789 160.642 38.6411 159.917C38.1747 159.147 37.5362 159.489 36.8261 159.561C35.9265 159.651 35.1995 159.637 34.3308 159.349C33.6825 159.134 32.869 158.49 32.1619 158.685Z" fill="#89C5CC"/>
<path fill-rule="evenodd" clip-rule="evenodd" d="M69.0532 155.235C69.0532 156.824 71.5234 156.824 71.5234 155.235C71.5234 153.645 69.0532 153.645 69.0532 155.235Z" fill="#89C5CC"/>
<path fill-rule="evenodd" clip-rule="evenodd" d="M74.516 155.474C74.516 157.24 77.2601 157.24 77.2601 155.474C77.2601 153.708 74.516 153.708 74.516 155.474Z" fill="#89C5CC"/>
<path fill-rule="evenodd" clip-rule="evenodd" d="M74.3127 159.307C72.8712 159.492 68.7022 159.915 68.4689 161.69C68.109 164.429 72.6772 162.213 73.7198 161.997C75.0477 161.723 76.2335 161.795 77.5593 161.848C78.2871 161.877 79.2552 161.995 79.1789 160.887C79.0538 159.068 75.5727 159.145 74.3127 159.307Z" fill="#89C5CC"/>
<path fill-rule="evenodd" clip-rule="evenodd" d="M38.0704 184.567C37.0256 184.846 35.6589 186.651 36.3777 187.755C37.5564 189.567 38.0762 186.785 38.5695 186.518C39.4671 186.031 40.1957 187.811 41.1337 186.877C42.6138 185.403 39.0023 184.318 38.0704 184.567Z" fill="#69A1AC"/>
<path fill-rule="evenodd" clip-rule="evenodd" d="M50.0422 183.228C48.8031 183.24 46.1873 184.993 46.002 186.287C45.892 187.056 46.4023 187.795 47.2319 187.805C48.3616 187.819 48.7206 186.351 49.6999 186.044C50.7562 185.713 50.5994 186.475 51.5117 186.871C52.1794 187.16 53.0144 187.039 53.2463 186.219C53.6838 184.671 51.3153 183.204 50.0422 183.228Z" fill="#69A1AC"/>
<path fill-rule="evenodd" clip-rule="evenodd" d="M40.5577 190.639C38.5759 191.8 41.8368 194.287 42.9673 194.598C44.674 195.067 48.1088 194.191 48.5133 192.108C48.6743 191.279 48.1552 190.528 47.2395 190.676C46.4856 190.799 46.0021 191.744 45.3038 192.082C44.3612 192.539 43.5232 192.508 42.7222 191.82C42.0697 191.26 41.7203 189.961 40.5577 190.639Z" fill="#69A1AC"/>
<path fill-rule="evenodd" clip-rule="evenodd" d="M41.9941 207.786C40.2235 208.163 38.4236 207.91 36.6444 208.265C34.8301 208.627 33.7459 209.312 32.0603 208.622C31.981 208.588 31.9019 208.555 31.8228 208.521C30.5182 207.96 29.1508 207.794 27.7853 208.689C26.9772 209.218 24.524 211.05 24.8196 212.168C25.4604 214.591 28.2208 210.791 28.9247 210.421C30.267 209.715 31.1873 210.617 32.5692 210.871C34.2244 211.176 35.5563 210.302 37.1156 209.954C38.9392 209.547 40.9907 209.405 42.846 209.187C43.579 209.101 46.3554 209.681 46.606 208.769C47.0366 207.203 42.69 207.639 41.9941 207.786Z" fill="#C1DEE2"/>
<path fill-rule="evenodd" clip-rule="evenodd" d="M54.7687 212.666C54.8844 212.754 54.7916 212.683 54.7687 212.666V212.666ZM59.7277 207.691C61.2435 207.538 66.0933 206.456 67.0891 208.021C67.7376 209.04 66.7084 212.803 65.7265 213.29C64.9418 213.678 63.1138 213.249 62.2526 213.218C60.6504 213.162 59.0447 213.137 57.4443 213.037C56.9075 213.003 55.1803 213.102 54.7595 212.627C54.2626 212.067 54.2848 209.079 54.1678 208.337C55.5615 208.788 58.2705 207.839 59.7277 207.691ZM62.9645 206.157C61.0232 206.241 59.0822 206.387 57.1554 206.647C56.0813 206.792 54.993 207.178 54.001 207.36C53.6813 207.419 53.1622 207.256 52.7701 207.445C51.6243 207.998 52.6277 211.738 52.904 212.737C53.3284 214.272 54.3965 214.521 55.893 214.665C57.8642 214.856 59.8759 214.796 61.8534 214.772C63.7595 214.749 66.3296 215.171 67.3992 213.26C68.0905 212.024 68.8321 209.146 68.2411 207.769C67.4637 205.957 64.561 206.09 62.9645 206.157Z" fill="#C1DEE2"/>
<path fill-rule="evenodd" clip-rule="evenodd" d="M84.7043 213.694C84.6005 213.827 84.6005 213.827 84.7043 213.694V213.694ZM85.1297 213.182C85.0976 213.23 84.9486 213.387 85.1297 213.182V213.182ZM80.5 213.041C81.3558 212.88 82.2119 212.721 83.0686 212.565C82.2573 213.699 81.403 213.23 80.0171 213.132C80.1781 213.101 80.3391 213.071 80.5 213.041ZM76.4173 212.639C76.6342 212.567 76.851 212.494 77.068 212.422C77.0614 212.587 77.0969 212.741 77.1744 212.885C76.803 212.845 76.432 212.802 76.0614 212.756C76.18 212.717 76.2987 212.678 76.4173 212.639ZM74.5253 211.243C74.5132 210.946 74.9612 211.15 75.2181 211.13C74.7229 211.565 74.492 211.603 74.5253 211.243ZM81.2916 207.866C81.3568 207.783 81.443 207.787 81.5504 207.879C81.4333 207.918 80.982 208.109 81.2916 207.866ZM85.6796 207.351C85.6912 207.351 85.9346 207.679 85.6796 207.351V207.351ZM85.5565 207.243C85.6202 207.292 85.6202 207.292 85.5565 207.243V207.243ZM85.0088 207.179C85.906 207.33 85.8378 208.382 85.0088 207.179V207.179ZM74.4681 207.107C74.2858 207.258 74.3482 207.112 74.4681 207.107V207.107ZM77.8992 204.867C76.376 204.956 73.5801 204.867 72.308 205.678C70.6479 206.736 71.5214 210.38 71.67 211.977C71.8896 214.338 73.0013 215.011 75.2266 215.259C77.8823 215.554 80.6108 215.61 83.2802 215.539C85.6842 215.476 87.0533 214.65 87.4937 212.121C87.6285 211.347 87.9708 210.15 87.9601 209.408C87.9527 208.894 87.6963 208.66 87.5993 208.223C87.0472 205.733 86.1239 205.438 83.5707 205.33C81.6915 205.25 79.7431 204.771 77.8992 204.867Z" fill="#89C5CC"/>
</g>
<g opacity="0.5">
<path fill-rule="evenodd" clip-rule="evenodd" d="M158.584 147.68C162.457 147.763 166.85 149.904 166.238 154.442C165.789 157.765 162.91 160.464 159.574 160.696C155.989 160.946 152.199 158.197 151.712 154.55C151.164 150.447 154.797 147.598 158.584 147.68ZM156.685 145.833C155.115 146.068 153.615 146.891 152.232 147.629C151.705 147.911 149.029 149.629 151.128 150.056C146.072 158.204 157.97 165.771 164.66 160.476C167.664 158.098 169.245 153.59 167.303 150.061C165.295 146.411 160.532 145.256 156.685 145.833Z" fill="#89C5CC"/>
<path fill-rule="evenodd" clip-rule="evenodd" d="M155.76 152.768C155.76 154.29 158.123 154.29 158.123 152.768C158.123 151.247 155.76 151.247 155.76 152.768Z" fill="#89C5CC"/>
<path fill-rule="evenodd" clip-rule="evenodd" d="M160.142 153.012C160.142 154.662 162.705 154.662 162.705 153.012C162.705 151.362 160.142 151.362 160.142 153.012Z" fill="#89C5CC"/>
<path fill-rule="evenodd" clip-rule="evenodd" d="M157.185 156.275C156.84 157.526 160.772 158.168 160.903 156.72C160.965 156.028 157.424 155.402 157.185 156.275Z" fill="#89C5CC"/>
<path fill-rule="evenodd" clip-rule="evenodd" d="M168.712 155.501C173.236 154.959 177.902 155.209 182.448 155.339C183.586 155.372 184.724 155.404 185.862 155.423C186.585 155.435 188.148 155.782 188.779 155.444C191.365 154.058 186.293 153.388 185.574 153.324C181.052 152.952 174.073 152.82 169.537 152.995C168.195 153.047 167.905 155.598 168.712 155.501Z" fill="#89C5CC"/>
<path fill-rule="evenodd" clip-rule="evenodd" d="M189.073 177.978C189.111 173.24 189.281 168.471 189.646 163.748C189.794 161.823 189.972 159.9 190.12 157.975C190.189 157.068 190.512 155.798 189.978 155.002C189.429 154.182 188.223 154.012 187.496 154.738C186.626 155.864 186.879 157.752 186.771 159.113C186.605 161.206 186.404 163.297 186.304 165.394C186.111 169.453 186.066 173.583 186.392 177.636C186.546 179.549 186.881 181.415 187.325 183.28C187.528 184.13 189.138 187.912 188.8 188.434C188.275 189.243 184.396 188.937 183.555 188.959C181.396 189.017 179.237 189.055 177.078 189.096C175.229 189.131 173.38 189.157 171.531 189.173C170.797 189.18 166.483 189.049 167.44 190.137C156.74 190.882 145.836 189.638 135.201 189.211C134.664 189.19 133.785 189.037 132.974 188.993C132.876 188.602 132.796 188.252 132.777 188.009C132.637 186.301 132.6 184.587 132.449 182.879C132.172 179.755 131.634 176.663 131.314 173.544C130.995 170.429 131.027 167.304 130.841 164.181C130.809 163.646 130.734 159.262 129.627 158.197C130.152 158.396 130.998 158.422 131.486 158.383C135.431 158.065 139.347 157.38 143.258 156.792C144.377 156.624 146.916 156.743 147.845 156.184C148.648 155.7 148.966 154.003 147.568 154.141C143.668 154.558 139.789 155.206 135.92 155.844C134.885 156.015 133.853 156.197 132.821 156.383C132.131 156.508 130.312 156.498 129.777 156.914C129.128 157.418 129.059 157.761 129.279 157.989C128.973 157.905 128.606 158.037 128.166 158.477C127.333 159.56 128.116 162.227 128.215 163.497C128.335 165.02 128.393 166.545 128.463 168.071C128.597 171.024 128.906 173.936 129.382 176.853C129.914 180.121 130.367 183.403 130.902 186.67C131.041 187.52 131.222 188.35 131.453 189.172C130.014 189.907 130.993 191.077 132.134 191.284C132.142 191.286 132.151 191.287 132.159 191.288C132.515 192.155 133.012 192.958 133.401 191.797C133.43 191.708 133.444 191.598 133.448 191.475C136.396 191.808 139.636 191.601 142.538 191.719C148.824 191.976 155.148 192.361 161.441 192.166C163.932 192.089 166.431 191.868 168.901 191.536C170.348 191.341 171.801 191.109 173.225 190.786C173.327 190.763 173.482 190.739 173.661 190.71C173.69 190.709 173.72 190.708 173.748 190.708C175.928 190.675 178.107 190.616 180.286 190.526C182.115 190.45 183.952 190.411 185.775 190.239C186.907 190.131 189.3 190.151 189.995 189.013C190.628 187.979 189.571 185.314 189.42 184.151C189.157 182.105 189.056 180.04 189.073 177.978Z" fill="#C1DEE2"/>
<path fill-rule="evenodd" clip-rule="evenodd" d="M166.974 164.299C165.232 164.448 163.62 165.266 161.862 165.276C160.386 165.284 158.933 164.843 157.449 164.909C155.708 164.984 154.75 166.109 153.225 166.486C152.011 166.785 151.246 165.857 150.179 165.446C148.83 164.927 147.834 165.195 146.679 165.979C145.83 166.556 143.85 167.85 143.865 169.016C143.91 172.548 148.034 167.669 148.866 167.61C149.97 167.531 151.205 168.789 152.38 168.861C153.934 168.956 154.93 167.955 156.361 167.59C157.808 167.222 159.372 167.673 160.823 167.814C162.478 167.974 163.926 167.605 165.528 167.21C167.079 166.828 168.402 166.848 169.978 167.169C171.043 167.386 173.694 168.647 174.159 167.026C174.793 164.818 168.192 164.195 166.974 164.299Z" fill="#89C5CC"/>
<path fill-rule="evenodd" clip-rule="evenodd" d="M167.504 171.036C163.934 171.382 160.342 171.686 156.756 171.783C155.202 171.825 149.231 171.16 149.76 173.132C150.214 174.824 158.34 173.759 159.996 173.63C161.823 173.488 163.647 173.29 165.466 173.06C166.11 172.978 167.666 173.063 168.121 172.523C168.554 172.007 168.34 170.952 167.504 171.036Z" fill="#89C5CC"/>
<path fill-rule="evenodd" clip-rule="evenodd" d="M142.875 180.018C142.793 180.053 142.793 180.053 142.875 180.018V180.018ZM143.628 180.008C144.518 179.98 144.327 179.511 145.215 179.755C145.624 179.868 145.666 179.701 145.984 180.092C146.603 180.855 146.02 182.517 145.409 183.132C143.148 185.408 140.435 180.109 143.628 180.008ZM143.628 177.775C137.438 177.982 140.028 187.536 145.415 185.586C147.64 184.78 149.038 181.152 147.73 179.113C147.093 178.121 146.281 177.944 145.215 177.876C144.967 177.86 144.656 178.219 144.501 178.203C144.134 178.164 144.168 177.754 143.628 177.775Z" fill="#89C5CC"/>
<path fill-rule="evenodd" clip-rule="evenodd" d="M158.429 180.346C158.318 180.312 160.383 180.912 160.157 180.677C160.639 181.178 159.991 182.362 159.446 182.569C158.125 183.07 157.384 181.018 158.429 180.346ZM159.345 177.755C157.407 178.03 155.911 178.836 155.647 180.99C155.402 182.977 156.746 184.99 158.866 185.029C163.487 185.113 163.628 177.158 159.345 177.755Z" fill="#89C5CC"/>
<path fill-rule="evenodd" clip-rule="evenodd" d="M180.44 180.433C180.711 183.962 177.048 180.732 180.44 180.433V180.433ZM178.868 176.656C178.548 177.204 178.821 177.784 179.305 178.102C174.984 179.015 175.963 185.512 180.359 184.552C182.595 184.064 183.006 181.714 182.673 179.775C182.514 178.852 180.214 174.358 178.868 176.656Z" fill="#89C5CC"/>
</g>
<path opacity="0.5" fill-rule="evenodd" clip-rule="evenodd" d="M189.09 180.046C187.802 180.275 184.757 181.697 184.784 183.223C184.825 185.606 187.413 183.003 187.989 182.653C191.081 180.773 195.086 183.21 198.306 183.728C199.782 183.966 202.67 184.405 203.974 183.416C206.292 181.658 200.93 182.098 200.247 182.028C196.534 181.645 192.841 179.377 189.09 180.046Z" fill="#C1DEE2"/>
<g opacity="0.5">
<path fill-rule="evenodd" clip-rule="evenodd" d="M249.925 163.292C249.924 165.73 249.8 168.219 250.25 170.628C250.386 171.357 250.494 172.754 251.264 173.133C252.037 173.513 252.787 173.086 252.979 172.293C253.203 171.372 252.711 169.992 252.662 169.025C252.593 167.703 252.589 166.379 252.588 165.056C252.588 164.1 252.902 162.562 251.773 162.07C250.934 161.705 249.925 162.385 249.925 163.292Z" fill="#C1DEE2"/>
<path fill-rule="evenodd" clip-rule="evenodd" d="M288.501 159.435C280.416 160.246 272.215 160.415 264.102 160.837C260.351 161.033 255.819 160.783 252.285 162.234C251.629 162.504 249.279 164.003 251.187 164.614C251.782 164.804 252.386 164.164 252.874 163.949C253.687 163.592 254.629 163.482 255.496 163.343C262.868 162.16 270.58 162.366 278.028 161.813C279.937 161.671 281.846 161.525 283.751 161.338C285.111 161.204 287.971 160.224 289.227 160.726C291.373 161.582 291.323 167.147 291.365 169.061C291.387 170.051 290.426 173.604 292.337 173.244C293.867 172.955 293.313 169.264 293.194 168.255C292.881 165.608 292.347 159.046 288.501 159.435Z" fill="#C1DEE2"/>
<path fill-rule="evenodd" clip-rule="evenodd" d="M291.482 173.115C284.46 173.749 277.276 173.127 270.225 173.377C266.529 173.507 262.836 173.715 259.14 173.837C257.541 173.89 255.941 173.893 254.342 173.904C253.577 173.909 250.095 174.373 252.249 175.888C253.203 176.559 256.241 176.019 257.336 176.005C258.979 175.986 260.622 175.918 262.264 175.854C266.068 175.705 269.87 175.499 273.676 175.396C277.317 175.298 280.959 175.277 284.6 175.178C286.412 175.129 288.248 175.073 290.043 174.809C290.448 174.749 291.764 174.702 292.046 174.251C292.311 173.824 292.125 173.054 291.482 173.115Z" fill="#89C5CC"/>
<path fill-rule="evenodd" clip-rule="evenodd" d="M256.969 167.847C256.931 167.937 256.931 167.937 256.969 167.847V167.847ZM260.01 166.924C260.121 166.971 260.121 166.971 260.01 166.924V166.924ZM259.868 166.898C261.507 168.567 258.986 170.56 257.451 168.931C255.822 167.202 258.813 166.904 259.868 166.898ZM258.13 164.373C252.485 165.376 254.484 172.894 259.756 171.807C262.07 171.331 263.394 169.001 262.597 166.762C262.286 165.888 261.608 164.928 260.663 164.653C260.192 164.515 259.775 164.732 259.326 164.681C258.898 164.633 258.661 164.277 258.13 164.373Z" fill="#C1DEE2"/>
<path fill-rule="evenodd" clip-rule="evenodd" d="M279.733 166.489C276.329 166.499 272.924 166.644 269.521 166.708C268.477 166.728 265.794 166.261 265.79 167.906C265.785 169.663 268.774 169.014 269.769 168.99C273.144 168.91 276.529 168.762 279.891 168.441C280.741 168.359 283.681 168.499 283.678 167.345C283.675 166.122 280.419 166.489 279.733 166.489Z" fill="#C1DEE2"/>
<path fill-rule="evenodd" clip-rule="evenodd" d="M287.863 177.957C279.444 178.183 271.038 178.262 262.627 178.692C259.48 178.853 256.338 178.973 253.187 178.973C252.58 178.973 251.358 178.738 250.787 179.12C249.237 180.156 251.002 181.045 252.012 181.101C258.923 181.484 265.933 180.53 272.839 180.315C276.882 180.189 280.926 180.152 284.967 179.946C286.07 179.89 287.172 179.825 288.273 179.74C288.906 179.691 290.579 179.825 291.091 179.455C293.324 177.84 288.616 177.937 287.863 177.957Z" fill="#89C5CC"/>
<path fill-rule="evenodd" clip-rule="evenodd" d="M249.237 182.071C249.158 184.252 249.15 186.395 249.435 188.564C249.548 189.417 249.599 190.386 250.6 190.603C251.51 190.799 251.971 190.112 252.159 189.35C252.619 187.49 252.214 184.812 252.209 182.879C252.206 181.923 252.205 180.854 251.024 180.638C250.122 180.473 249.271 181.124 249.237 182.071Z" fill="#89C5CC"/>
<path fill-rule="evenodd" clip-rule="evenodd" d="M296.786 187.329C283.158 188.046 269.549 188.673 255.912 189.249C254.848 189.294 246.586 189.204 249.474 192.083C250.367 192.972 252.665 192.37 253.819 192.313C255.553 192.228 257.287 192.163 259.021 192.075C265.895 191.725 272.788 191.631 279.657 191.239C283.437 191.023 287.208 190.685 290.969 190.245C292.757 190.036 294.978 190.057 296.653 189.357C297.515 188.996 298.445 187.241 296.786 187.329Z" fill="#89C5CC"/>
<path fill-rule="evenodd" clip-rule="evenodd" d="M288.95 176.265C287.914 177.296 288.447 179.331 288.525 180.606C288.632 182.36 288.763 184.115 288.982 185.86C289.125 186.993 289.049 188.757 289.654 189.736C290.363 190.882 291.923 190.756 292.563 189.648C293.13 188.669 292.843 186.608 292.829 185.522C292.808 184.021 292.715 182.518 292.626 181.02C292.551 179.767 292.835 177.761 292.146 176.689C291.445 175.6 289.921 175.3 288.95 176.265Z" fill="#89C5CC"/>
<path fill-rule="evenodd" clip-rule="evenodd" d="M257.802 184.269C257.681 184.362 257.681 184.362 257.802 184.269V184.269ZM260.223 183.966C262.481 184.42 258.829 187.054 257.675 185.246C257.495 184.963 257.401 184.616 257.69 184.371C257.954 184.146 258.12 184.543 258.37 184.437C258.8 184.253 259.764 183.949 260.223 183.966ZM259.911 181.802C258.369 181.924 256.249 182.019 255.486 183.564C254.46 185.639 256.214 187.67 258.243 187.986C260.195 188.29 263.11 187.209 263.266 184.934C263.392 183.1 261.646 181.662 259.911 181.802Z" fill="#89C5CC"/>
<path fill-rule="evenodd" clip-rule="evenodd" d="M272.784 182.899C271.188 182.925 268.051 182.454 266.66 183.231C265.284 184 265.897 185.37 267.153 185.698C267.983 185.914 269.339 185.565 270.203 185.53C271.339 185.484 272.476 185.474 273.613 185.458C275.526 185.432 277.437 185.454 279.35 185.454C281.303 185.454 283.29 185.507 285.24 185.364C287.707 185.182 287.641 183.336 285.228 183.105C281.129 182.713 276.897 182.835 272.784 182.899Z" fill="#89C5CC"/>
<path fill-rule="evenodd" clip-rule="evenodd" d="M268.707 203.575C268.707 204.453 269.486 203.575 269.48 203.575C269.486 203.575 268.707 202.698 268.707 203.575Z" fill="#89C5CC"/>
<path fill-rule="evenodd" clip-rule="evenodd" d="M251.09 196.515C251.14 199.064 251.173 201.616 251.282 204.164C251.317 204.969 251.086 206.542 252.063 206.953C253.15 207.41 253.489 206.271 253.614 205.499C254.011 203.053 253.622 200.26 253.583 197.784C253.571 196.953 253.751 195.797 252.806 195.382C252.036 195.044 251.074 195.672 251.09 196.515Z" fill="#89C5CC"/>
<path fill-rule="evenodd" clip-rule="evenodd" d="M293.048 196.555C293.112 196.707 293.112 196.707 293.048 196.555V196.555ZM293.139 196.529C293.191 196.551 293.402 196.639 293.139 196.529V196.529ZM272.527 194.468C268.611 194.529 264.691 194.576 260.777 194.744C259.106 194.815 257.416 194.873 255.752 195.03C254.572 195.142 251.643 195.188 250.878 196.151C249.3 198.139 252.647 197.597 253.368 197.435C254.68 197.141 256.019 197.047 257.359 196.976C260.267 196.823 263.177 196.741 266.088 196.683C273.984 196.524 281.886 196.548 289.784 196.512C290.549 196.509 291.93 196.202 292.637 196.511C293.344 196.821 293.304 197.582 293.378 198.467C293.475 199.643 292.699 201.885 293.291 202.875C294.209 204.41 295.543 203.106 295.747 201.987C296.029 200.441 295.582 198.584 295.145 197.106C294.528 195.02 293.671 194.937 291.652 194.774C289.294 194.584 286.944 194.469 284.577 194.447C280.562 194.41 276.543 194.406 272.527 194.468Z" fill="#89C5CC"/>
<path fill-rule="evenodd" clip-rule="evenodd" d="M288.019 205.007C279.524 205.993 270.787 205.412 262.246 205.447C260.169 205.456 258.09 205.472 256.015 205.573C254.919 205.626 252.321 205.324 251.57 206.169C249.988 207.95 252.839 208.209 253.88 208.135C255.984 207.985 258.093 207.917 260.203 207.901C267.634 207.844 275.107 208.19 282.532 207.824C285.643 207.67 288.684 207.139 291.738 206.544C292.414 206.413 297.044 205.533 294.404 204.479C292.844 203.856 289.659 204.816 288.019 205.007Z" fill="#89C5CC"/>
<path fill-rule="evenodd" clip-rule="evenodd" d="M263.215 201.747C263.156 201.823 263.156 201.823 263.215 201.747V201.747ZM263.158 201.734C263.137 201.789 263.075 201.923 263.158 201.734V201.734ZM262.622 201.043C262.634 201.059 262.685 201.124 262.622 201.043V201.043ZM262.601 201.038C262.806 201.282 262.944 201.554 263.014 201.855C261.254 202.331 260.576 200.908 262.601 201.038ZM262.49 200.972C262.49 200.972 262.738 201.076 262.49 200.972V200.972ZM259.598 198.852C258.459 200.269 257.519 201.921 258.939 203.541C260.209 204.988 262.764 205.175 264.376 204.209C266.036 203.213 265.893 201.116 264.734 199.747C263.989 198.866 263.384 198.891 262.302 198.747C261.566 198.649 260.223 198.077 259.598 198.852Z" fill="#89C5CC"/>
<path fill-rule="evenodd" clip-rule="evenodd" d="M271.374 201.475C271.374 203.363 279.531 202.551 280.982 202.549C282.198 202.547 289.548 203.217 289.02 201.274C288.587 199.678 281.347 200.471 279.805 200.469C278.472 200.467 271.374 199.553 271.374 201.475Z" fill="#89C5CC"/>
</g>
<g opacity="0.5">
<path fill-rule="evenodd" clip-rule="evenodd" d="M164.887 219.161C168.972 219.754 173.222 221.674 173.186 226.425C173.156 230.42 169.803 234.672 165.497 234.433C161.622 234.219 157.974 229.984 157.489 226.356C157.237 224.476 157.708 222.452 158.814 220.905C160.264 218.879 162.565 218.882 164.887 219.161ZM162.958 216.579C160.003 216.595 157.841 217.663 156.013 219.917C155.357 220.725 154.594 221.595 154.095 222.511C153.629 223.366 153.711 225.541 155.311 224.522C154.917 228.733 157.379 232.819 160.92 234.977C164.768 237.322 169.118 236.865 172.32 233.578C175.252 230.568 176.284 225.485 174.139 221.764C171.995 218.044 167.029 216.539 162.958 216.579Z" fill="#89C5CC"/>
<path fill-rule="evenodd" clip-rule="evenodd" d="M171.817 215.45C169.926 216.836 168.198 218.66 166.764 220.51C165.362 222.319 164.435 224.577 162.75 226.154C161.9 225.228 160.903 222.728 159.206 223.72C157.798 224.543 158.705 225.958 159.391 226.888C161.162 229.288 163.128 230.254 165.399 227.883C167.462 225.729 168.633 222.856 170.562 220.579C171.408 219.579 172.715 218.588 173.388 217.484C173.999 216.484 173.244 214.403 171.817 215.45Z" fill="#89C5CC"/>
</g>
<g opacity="0.5">
<path fill-rule="evenodd" clip-rule="evenodd" d="M243.302 65.2181C243.305 65.4069 243.308 65.5846 243.312 65.7479C243.4 69.3139 243.349 73.0628 243.059 76.6204C242.959 77.8488 242.065 79.4057 241.045 77.7124C240.596 76.9679 240.659 75.439 240.705 74.3143C240.717 74.0127 240.729 73.7403 240.729 73.5198C240.728 72.2648 240.794 70.9971 240.86 69.7259C240.989 67.2407 241.119 64.7426 240.751 62.3018C240.744 62.2524 240.736 62.2049 240.73 62.1592C240.57 61.0858 240.559 61.0117 239.378 61.0361C238.885 61.0463 238.393 61.0596 237.9 61.0729C237.416 61.086 236.932 61.0991 236.447 61.1092C235.966 61.1193 235.485 61.1286 235.004 61.1378C233.496 61.1668 231.988 61.1958 230.48 61.2509C230.228 61.2602 229.759 61.3191 229.167 61.3933C227.982 61.5418 226.306 61.7518 224.896 61.7506C224.896 61.7567 224.896 61.7628 224.897 61.7688C224.898 61.7797 224.898 61.7906 224.899 61.8017C224.915 62.5798 224.714 63.4484 224.513 64.3209C224.344 65.0517 224.174 65.7853 224.131 66.4708C224.027 68.1022 224.026 69.7509 224.025 71.3995C224.024 73.4069 224.023 75.4144 223.836 77.3908C223.827 77.4872 223.822 77.5891 223.816 77.6921C223.816 77.7058 223.815 77.7195 223.814 77.7332C223.878 77.7235 223.94 77.7167 224 77.7129C225.016 77.6485 226.041 77.6427 227.065 77.637C227.629 77.6338 228.193 77.6307 228.755 77.6177C229.764 77.5943 230.785 77.5954 231.811 77.5965C234.074 77.599 236.358 77.6014 238.572 77.3408C239.226 77.2561 239.454 78.0943 239.161 78.5288C238.898 78.9177 238.175 78.9807 237.646 79.0269C237.511 79.0386 237.389 79.0493 237.29 79.0639C235.862 79.2752 234.415 79.3489 232.975 79.4127C231.461 79.4797 229.947 79.5298 228.433 79.5719C228.072 79.5818 227.591 79.6304 227.058 79.6843C225.65 79.8265 223.877 80.0056 222.997 79.6077C222.052 79.1802 222.074 78.7056 222.46 78.3378C222.29 77.9659 222.264 77.4224 222.243 76.9974C222.235 76.8351 222.228 76.6901 222.214 76.5785C222.004 74.886 221.878 73.2153 221.875 71.5083C221.869 68.1647 221.876 64.6921 222.801 61.4557C222.43 61.2935 222.207 61.0544 222.208 60.7097C222.212 58.9733 227.62 59.0617 230.191 59.1037C230.651 59.1112 231.02 59.1172 231.251 59.1111C233.124 59.0622 234.997 59.0558 236.87 59.066C237.266 59.0681 237.706 59.0422 238.163 59.0154C239.134 58.9584 240.176 58.8971 241.015 59.0918C243.218 59.6028 243.27 63.1083 243.302 65.2181Z" fill="#89C5CC"/>
<path fill-rule="evenodd" clip-rule="evenodd" d="M257.079 59.4724C259.124 59.3642 261.171 59.3394 263.218 59.3318C265.387 59.3209 267.558 59.3599 269.725 59.4265L269.775 59.428C270.735 59.4568 276.072 59.617 273.62 60.946C273.477 61.0235 273.316 61.0883 273.141 61.1421C273.244 61.7575 273.257 62.3929 273.24 62.699C273.177 63.8597 273.135 65.0216 273.094 66.1836L273.094 66.1838L273.094 66.1842C273.065 66.9716 273.037 67.759 273.002 68.546C272.906 70.7208 272.814 72.8955 272.739 75.0713C272.729 75.3384 272.744 75.6877 272.759 76.077C272.811 77.3642 272.881 79.0889 272.182 79.7265C271.568 80.2864 271.148 80.1742 270.866 79.7939C269.109 80.3037 265.501 80.138 263.687 80.0546C263.25 80.0345 262.917 80.0192 262.739 80.0193C262.421 80.0194 261.83 80.0591 261.083 80.1092C257.977 80.3177 252.178 80.7069 252.166 79.1766C252.165 79.0294 252.213 78.8974 252.303 78.7792C252.057 78.5282 251.835 78.1598 251.693 77.7C251.183 76.0495 251.134 74.2684 251.097 72.5568C251.043 70.14 251.043 67.7204 251.042 65.3013V65.3013C251.042 64.0589 251.041 62.8166 251.034 61.575C250.702 61.1293 250.899 60.6196 251.313 60.264C252.196 59.5074 254.385 59.4983 255.969 59.4917C256.396 59.4899 256.778 59.4883 257.079 59.4724ZM253.752 78.1079C255.723 77.6873 259.044 77.8227 260.823 77.8952C261.289 77.9142 261.65 77.9289 261.852 77.9282C263.67 77.921 265.488 77.9462 267.304 78.0188C267.492 78.0263 267.77 78.0193 268.099 78.011C268.758 77.9944 269.618 77.9728 270.348 78.0536C270.338 77.9547 270.331 77.8643 270.327 77.7862C270.246 76.171 270.305 74.5418 270.363 72.9216C270.376 72.5773 270.388 72.2333 270.399 71.8899C270.438 70.6786 270.49 69.4679 270.542 68.2571L270.542 68.2563C270.574 67.4941 270.607 66.7319 270.636 65.9696C270.649 65.6351 270.63 65.1806 270.609 64.6694V64.6693C270.565 63.6292 270.511 62.3538 270.697 61.3743C270.025 61.3615 269.336 61.3139 268.704 61.2702C268.095 61.2281 267.539 61.1897 267.102 61.1897C266.548 61.1896 265.993 61.1879 265.439 61.1862L265.439 61.1862C263.904 61.1815 262.369 61.1768 260.833 61.2072L260.396 61.2157C258.281 61.2564 256.149 61.2975 254.052 61.5759C253.929 61.5922 253.782 61.6237 253.619 61.6619C253.848 62.6219 253.736 63.9749 253.637 65.1598C253.589 65.7354 253.545 66.2713 253.544 66.7033C253.541 69.3896 253.612 72.0654 253.683 74.7385L253.683 74.7386L253.683 74.7388C253.71 75.7499 253.737 76.7606 253.759 77.7714C253.762 77.892 253.759 78.0041 253.752 78.1079Z" fill="#89C5CC"/>
<path fill-rule="evenodd" clip-rule="evenodd" d="M231.317 79.4942C229.973 80.2787 230.697 83.417 231.163 84.5024C231.929 86.2871 233.482 87.6836 235.157 88.61C238.545 90.4824 243.427 89.9851 245.989 93.2313C246.015 93.2649 246.901 94.1408 247.102 93.0065C247.268 92.0755 245.615 90.6537 244.974 90.187C243.153 88.8601 240.817 88.4321 238.71 87.7693C236.463 87.0623 233.997 85.759 233.055 83.4442C232.721 82.6243 233.357 78.2974 231.317 79.4942Z" fill="#C1DEE2"/>
<path fill-rule="evenodd" clip-rule="evenodd" d="M262.04 81.003C260.809 81.3423 261.623 83.0357 261.621 83.8837C261.619 84.9415 261.281 86.0486 260.628 86.8927C258.974 89.0336 255.734 89.3544 253.305 89.9682C251.542 90.4142 247.322 91.3704 247.157 93.7538C246.972 96.4154 250.698 93.1764 251.012 93.0436C254.494 91.7674 258.999 91.5209 261.686 88.7116C262.796 87.552 263.451 86.0043 263.555 84.4068C263.614 83.5074 263.624 80.5707 262.04 81.003Z" fill="#C1DEE2"/>
<path fill-rule="evenodd" clip-rule="evenodd" d="M236.592 104.611C236.564 99.6869 241.28 96.708 245.545 95.5874C250.671 94.238 255.446 97.8271 256.05 102.99C256.688 108.439 252.578 112.825 247.158 113.066C242.391 113.277 236.623 109.866 236.592 104.611ZM248.043 97.9553C248.32 98.3319 248.571 98.933 248.012 99.2603C247.475 99.5732 247.206 99.197 246.936 98.8185C246.766 98.5792 246.594 98.339 246.354 98.2713C245.731 98.096 244.729 98.7509 244.21 99.1327C244 99.2878 243.7 99.6215 243.349 100.012C242.234 101.253 240.605 103.066 239.704 101.506C236.113 107.702 245.066 112.339 250.156 109.994C255.747 107.419 254.659 98.0044 248.043 97.9553Z" fill="#89C5CC"/>
<path fill-rule="evenodd" clip-rule="evenodd" d="M243.351 102.963C243.351 104.093 245.138 104.093 245.138 102.963C245.138 101.846 243.351 101.798 243.351 102.963Z" fill="#89C5CC"/>
<path fill-rule="evenodd" clip-rule="evenodd" d="M246.494 102.751C246.494 104.135 248.683 104.135 248.683 102.751C248.683 101.382 246.494 101.324 246.494 102.751Z" fill="#89C5CC"/>
<path fill-rule="evenodd" clip-rule="evenodd" d="M244.245 105.977C242.455 107.029 247.574 109.12 247.777 106.984C247.864 106.062 246.97 106.31 246.375 106.243C245.805 106.178 244.786 105.663 244.245 105.977Z" fill="#89C5CC"/>
<path fill-rule="evenodd" clip-rule="evenodd" d="M243.468 113.443C243.546 116.13 243.509 118.816 244.019 121.467C244.116 121.97 244.183 123.796 244.581 124.17C245.561 125.09 245.577 123.326 245.615 122.651C245.751 120.231 245.497 117.736 245.44 115.311C245.428 114.789 245.567 113.708 245.32 113.203C244.929 112.401 243.43 112.162 243.468 113.443Z" fill="#C1DEE2"/>
<path fill-rule="evenodd" clip-rule="evenodd" d="M241.554 111.263C237.629 115.665 232.224 115.341 226.78 115.726C223.903 115.93 220.994 116.348 218.679 118.208C217.602 119.073 216.674 120.156 216.05 121.391C215.778 121.931 214.484 125.045 216.427 124.306C217.116 124.044 217.794 121.985 218.239 121.375C219.088 120.215 220.174 119.257 221.476 118.635C223.989 117.433 226.989 117.454 229.714 117.301C232.562 117.142 235.618 116.993 238.236 115.756C239.468 115.174 240.623 114.448 241.614 113.512C241.968 113.178 242.728 112.609 242.784 112.098C242.849 111.513 242.287 110.443 241.554 111.263Z" fill="#C1DEE2"/>
<path fill-rule="evenodd" clip-rule="evenodd" d="M221.741 124.774C218.054 124.897 214.372 125.046 210.69 125.279C209.936 125.327 207.42 125.174 208.061 126.719C208.574 127.958 211.642 127.138 212.657 127.078C216.493 126.851 220.345 126.772 224.174 126.427C225.034 126.35 228.921 126.38 227.316 124.857C226.552 124.133 222.796 124.738 221.741 124.774Z" fill="#89C5CC"/>
<path fill-rule="evenodd" clip-rule="evenodd" d="M205.72 126.551C204.558 128.076 205.092 131.783 205.18 133.616C205.265 135.393 204.919 138.641 207.24 138.917C206.503 138.82 207.8 138.962 208.011 138.973C208.482 138.998 208.955 139.006 209.427 139.011C210.517 139.023 211.608 139.009 212.698 138.987C215.167 138.938 217.642 138.866 220.107 138.73C221.144 138.672 226.767 138.72 226.989 137.644C227.274 136.269 221.883 137.047 220.918 137.091C218.567 137.199 216.213 137.221 213.861 137.252C212.695 137.267 211.528 137.279 210.362 137.256C209.881 137.247 207.974 137.444 207.681 137.123C207.432 136.85 207.627 134.338 207.621 133.954C207.604 132.701 207.606 131.446 207.65 130.194C207.68 129.351 208.136 127.747 207.765 126.955C207.403 126.185 206.35 125.923 205.72 126.551Z" fill="#89C5CC"/>
<path fill-rule="evenodd" clip-rule="evenodd" d="M224.704 126.622C224.771 129.412 224.792 132.259 225.451 134.987C225.671 135.895 225.978 137.768 226.891 138.238C227.849 138.731 228.677 138.027 228.739 137.078C228.818 135.886 228.179 134.32 228.048 133.096C227.895 131.668 227.806 130.239 227.753 128.804C227.714 127.725 228.042 126.107 227.012 125.411C226.088 124.786 224.673 125.415 224.704 126.622Z" fill="#89C5CC"/>
<path fill-rule="evenodd" clip-rule="evenodd" d="M232.04 125.941C230.894 127.082 231.406 130.696 231.55 132.162C231.655 133.236 232.831 138.52 234.594 135.765C235.374 134.546 234.383 131.323 234.39 129.902C234.395 128.997 234.715 127.852 234.56 126.983C234.356 125.834 233.08 124.903 232.04 125.941Z" fill="#89C5CC"/>
<path fill-rule="evenodd" clip-rule="evenodd" d="M239.979 124.999C243.423 124.644 246.872 124.377 250.335 124.344C250.501 124.343 250.676 124.341 250.857 124.339C253.231 124.308 256.798 124.263 258.395 126.044C259.265 127.014 259.659 128.514 260.003 129.822C260.067 130.066 260.129 130.303 260.193 130.528C260.247 130.721 260.317 130.941 260.393 131.179C260.752 132.302 261.237 133.82 260.745 134.761C260.475 135.276 260.041 135.716 259.381 135.533C259.227 135.491 259.106 135.436 259.012 135.372C259.264 135.645 259.376 136.034 259.212 136.415C258.895 137.151 257.893 137.166 257.103 137.179C256.912 137.182 256.733 137.184 256.58 137.197C253.95 137.416 251.309 137.562 248.67 137.585C247.414 137.597 246.157 137.586 244.901 137.576C243.607 137.565 242.314 137.555 241.021 137.568C240.082 137.577 239.126 137.666 238.17 137.755C236.962 137.868 235.754 137.98 234.58 137.932C233.702 137.896 232.764 137.609 232.986 136.474C233.168 135.548 234.04 135.467 234.822 135.395C234.89 135.389 234.957 135.382 235.024 135.376C237.513 135.122 240.003 135.033 242.505 135.042C247.761 135.06 253.013 135.033 258.269 135.005C258.485 135.023 258.688 135.106 258.856 135.231C258.667 135.002 258.67 134.696 258.674 134.371C258.676 134.224 258.678 134.072 258.662 133.922C258.63 133.62 258.6 133.32 258.571 133.02C258.474 132.028 258.377 131.044 258.188 130.047C258.16 129.896 258.132 129.731 258.103 129.555C257.931 128.52 257.703 127.148 256.879 126.589C256.051 126.027 254.426 126.054 253.16 126.075C252.818 126.08 252.503 126.086 252.236 126.079C248.858 125.992 245.46 126.231 242.097 126.537C241.839 126.56 241.58 126.583 241.321 126.605C240.042 126.717 238.756 126.829 237.495 127.057C237.264 127.099 236.912 127.222 236.507 127.363C235.432 127.738 233.989 128.241 233.499 127.687C231.875 125.852 239.011 125.099 239.979 124.999Z" fill="#89C5CC"/>
<path fill-rule="evenodd" clip-rule="evenodd" d="M276.62 120.821C276.77 121.013 276.77 121.013 276.62 120.821V120.821ZM253.314 109.452C251.222 110.68 255.094 114.285 256.08 114.843C258.299 116.097 261.349 116.286 263.827 116.639C266.963 117.086 270.376 117.25 273.39 118.277C274.674 118.715 275.49 119.398 276.331 120.447C276.757 120.979 277.783 123.271 278.717 122.728C280.598 121.636 275.529 117.05 274.413 116.557C271.874 115.437 268.872 115.123 266.158 114.688C263.633 114.283 261.055 113.982 258.593 113.268C257.239 112.876 256.277 112.243 255.497 111.032C255.01 110.277 254.611 108.693 253.314 109.452Z" fill="#C1DEE2"/>
<path fill-rule="evenodd" clip-rule="evenodd" d="M285.38 123.534C282.968 123.587 280.561 123.773 278.155 123.958C276.805 124.062 275.455 124.166 274.104 124.247C273.682 124.272 273.259 124.295 272.836 124.317C271.646 124.381 270.455 124.445 269.271 124.565C269.091 124.583 268.883 124.6 268.656 124.619L268.656 124.619C267.65 124.701 266.279 124.814 265.403 125.18C264.6 124.573 263.36 125.09 263.341 126.172C263.308 128.143 263.326 130.079 263.567 132.038C263.622 132.492 263.91 134.795 264.536 135.993C264.313 137.125 265.279 137.442 266.177 137.529C269.658 137.864 273.308 137.604 276.908 137.347C278.74 137.216 280.558 137.086 282.335 137.036C282.926 137.019 283.525 137.013 284.127 137.006C286.091 136.984 288.094 136.962 289.996 136.59C290.072 136.575 290.154 136.561 290.24 136.545C290.992 136.411 292.029 136.225 292.108 135.398C292.156 134.902 291.876 134.447 291.407 134.383C291.439 133.97 291.387 133.519 291.348 133.187C291.34 133.11 291.331 133.039 291.325 132.977C291.211 131.826 290.925 130.684 290.641 129.556L290.641 129.555C290.578 129.302 290.514 129.049 290.453 128.797C290.385 128.518 290.322 128.186 290.255 127.828C290.016 126.565 289.715 124.977 288.916 124.24C288.078 123.467 286.713 123.501 285.62 123.528L285.62 123.528C285.538 123.53 285.458 123.532 285.38 123.534ZM289.623 134.507C289.337 133.759 289.254 132.747 289.174 131.786L289.174 131.786C289.124 131.183 289.076 130.599 288.98 130.112C288.908 129.747 288.85 129.362 288.79 128.971C288.644 128.021 288.493 127.034 288.137 126.201C287.659 125.086 287.233 125.129 286.227 125.229C286.04 125.248 285.832 125.269 285.601 125.285C284.575 125.354 283.55 125.443 282.526 125.532L282.526 125.532C282.034 125.574 281.542 125.617 281.051 125.657C278.947 125.83 276.842 125.963 274.736 126.096C273.507 126.173 272.276 126.251 271.046 126.336C270.081 126.403 269.139 126.587 268.201 126.769C267.458 126.914 266.717 127.058 265.969 127.144C265.958 127.399 265.937 127.656 265.916 127.9C265.888 128.233 265.863 128.543 265.868 128.797C265.893 129.922 265.992 131.041 266.092 132.162L266.092 132.162C266.107 132.334 266.122 132.506 266.137 132.679C266.155 132.885 266.2 133.151 266.249 133.445C266.325 133.901 266.413 134.426 266.433 134.909C266.524 134.908 266.615 134.909 266.704 134.909C266.819 134.909 266.932 134.91 267.04 134.908C269.691 134.862 272.34 134.781 274.989 134.679C275.327 134.667 275.666 134.653 276.004 134.64C278.367 134.548 280.731 134.456 283.096 134.429C284.036 134.419 284.988 134.448 285.943 134.478C287.172 134.515 288.405 134.554 289.623 134.507Z" fill="#89C5CC"/>
</g>
</svg>
