<svg width="208" height="293" viewBox="0 0 208 293" fill="none" xmlns="http://www.w3.org/2000/svg">
<path fill-rule="evenodd" clip-rule="evenodd" d="M106.556 51.5839C110.981 54.2597 115.329 55.5526 117.37 55.0248C122.487 53.7014 122.958 34.9187 118.998 27.5139C115.038 20.1092 94.6815 16.8817 93.6555 31.5529C93.2994 36.6448 95.4305 41.1889 98.5792 44.8969L92.9333 71.2975H109.333L106.556 51.5839Z" fill="#B28B67"/>
<path fill-rule="evenodd" clip-rule="evenodd" d="M97.319 48.1995C95.2607 39.0124 89.3967 32.7498 90.2923 28.6435C91.1878 24.5373 95.0662 23.5365 95.0662 23.5365C95.0662 23.5365 97.072 15.3956 108.005 16.6112C118.937 17.8268 125.61 22.3817 122.728 32.4046C120.079 32.4046 116.882 31.4435 112.46 33.0902C110.355 33.8738 109.449 37.9508 109.449 37.9508H107.451C107.451 37.9508 104.542 33.1126 101.715 34.395C98.8871 35.6774 100.429 40.6248 100.429 40.6248L99.4448 48.1995H97.319Z" fill="#191847"/>
<path fill-rule="evenodd" clip-rule="evenodd" d="M63.2922 156.991H116.083L123 242H44.4167L63.2922 156.991Z" fill="#C5CFD6"/>
<path fill-rule="evenodd" clip-rule="evenodd" d="M63.2922 156.991H79.5283L89.246 242H44.4167L63.2922 156.991Z" fill="black" fill-opacity="0.1"/>
<path fill-rule="evenodd" clip-rule="evenodd" d="M145.088 173.833C139.155 186.455 129.886 217.095 129.886 217.095L137.755 220.702C137.755 220.702 157.723 188.494 169.926 166.477C169.357 171.434 168.779 177.014 168.242 182.88C166.97 196.776 168.241 226.799 168.925 235.472C169.355 240.922 176.737 239.78 177.426 235.457C177.543 234.725 178.019 232.155 178.728 228.32C182.209 209.513 191.317 160.294 191.333 148.243C191.34 143.393 181.897 139.037 176.268 142.428C172.402 138.289 165.085 135.904 160.881 142.74C158.209 147.086 151.859 159.425 145.088 173.833Z" fill="#B28B67"/>
<path fill-rule="evenodd" clip-rule="evenodd" d="M130.448 205.752L157.459 141.558C163.929 131.115 182.071 143.683 179.865 149.739C174.855 163.49 149.376 208.006 147.884 212.103L130.448 205.752Z" fill="#1F28CF"/>
<path fill-rule="evenodd" clip-rule="evenodd" d="M131.385 213.887C130.67 212.957 129.328 212.728 128.446 213.498C127.399 214.411 126.159 215.593 125.665 216.452C124.74 218.058 123.501 221.448 123.501 221.448C125.358 222.523 156.878 240.781 156.878 240.781C156.878 240.781 160.663 237.219 158.058 235.252C155.452 233.284 153.758 231.933 153.758 231.933L142.429 216.273C142.098 215.816 141.456 215.722 141.01 216.067L138.874 217.717C138.874 217.717 135.58 217.429 133.957 216.489C133.129 216.009 132.148 214.879 131.385 213.887Z" fill="#E4E4E4"/>
<path fill-rule="evenodd" clip-rule="evenodd" d="M169.729 231.499C168.645 231.051 167.366 231.526 166.986 232.636C166.535 233.952 166.05 235.597 166.05 236.588C166.05 238.442 166.666 242 166.666 242C168.81 242 205.207 242 205.207 242C205.207 242 206.709 237.017 203.473 236.62C200.236 236.223 198.095 235.902 198.095 235.902L180.481 228.024C179.965 227.794 179.362 228.035 179.147 228.557L178.12 231.058C178.12 231.058 175.123 232.46 173.25 232.46C172.295 232.46 170.883 231.975 169.729 231.499Z" fill="#E4E4E4"/>
<path fill-rule="evenodd" clip-rule="evenodd" d="M193.226 153.175C193.226 171.388 184.605 213.872 184.6 217.882L166.05 217.897C166.05 217.897 170.123 161.035 168.938 160.422C167.754 159.81 120.387 165.167 106.181 165.167C85.6953 165.167 77.221 152.207 76.5333 128.198H117.114C125.377 129.085 168.475 137.806 184.481 140.804C191.333 142.088 193.226 148.158 193.226 153.175Z" fill="#2B44FF"/>
<path fill-rule="evenodd" clip-rule="evenodd" d="M171.763 50.0195L145.862 57.82L152.475 68.8723L172.613 56.982C182.014 56.4204 186.456 55.4903 185.938 54.1915C185.502 53.0965 184.464 52.9099 183.508 52.7381C182.763 52.6042 182.068 52.4792 181.746 51.9407C181.01 50.7109 183.589 47.5096 186.166 44.5767C188.743 41.6437 186.681 41.5071 185.435 41.7423C181.152 43.4869 176.594 46.2459 171.763 50.0195ZM165.37 119.692L143.573 103.634L138.755 115.583L160.339 124.563C166.444 131.757 169.858 134.756 170.58 133.56C171.189 132.552 170.713 131.608 170.274 130.738C169.933 130.061 169.614 129.429 169.849 128.847C170.385 127.517 174.485 127.657 178.371 127.957C182.257 128.256 181.125 126.522 180.188 125.665C176.221 123.283 171.282 121.292 165.37 119.692Z" fill="#B28B67"/>
<path fill-rule="evenodd" clip-rule="evenodd" d="M109.716 60.3881C121.586 82.5928 138.751 99.6144 163.635 117.309L154.213 127.967C126.429 117.608 111.765 111.359 104.564 90.3796C102.757 85.1143 101.494 68.3296 100.41 59.4983L109.716 60.3881Z" fill="#2026A2"/>
<path fill-rule="evenodd" clip-rule="evenodd" d="M76.5333 134.368H129.15C129.15 134.368 111.272 79.6667 110.885 59.2808C110.871 58.5879 109.596 57.367 109.032 57.5269C102.842 59.2808 95.7841 56.2153 95.7841 56.2153C83.3103 76.342 78.9966 101.122 76.5333 134.368Z" fill="#F2F2F2"/>
<path fill-rule="evenodd" clip-rule="evenodd" d="M108.982 86.9217C117.2 122.287 116.821 151.237 98.6785 151.237H70.6233C66.1675 121.195 77.8782 79.5402 88.7349 58.5301C89.1495 57.7278 90.0322 56.2153 92.1113 56.2153H100.263C100.267 56.2261 100.27 56.2369 100.274 56.2478C102.727 56.2679 105.429 56.3579 108.354 56.4553C123.416 56.9569 144.417 57.6564 168.047 50.0453L170.833 64.0124C149.504 77.7747 127.907 88.4356 108.982 86.9217Z" fill="#1F28CF"/>
</svg>
